{"asset":{"version":"2.0","generator":"Realm of the Fallen scout authoring v1"},"scene":0,"scenes":[{"nodes":[0]}],"nodes":[{"name":"Scout","translation":[0,0,0],"children":[1]},{"name":"Rig","translation":[0,0,0],"children":[2]},{"name":"Hips","translation":[0,0.88,0],"children":[3,9,14],"mesh":0},{"name":"Torso","translation":[0,0.16,0],"children":[4,6,11],"mesh":1},{"name":"Neck","translation":[0,0.51,0],"children":[5],"mesh":2},{"name":"Head","translation":[0,0.32,0],"mesh":3},{"name":"ArmL","translation":[-0.4,0.4,0],"children":[7],"mesh":4},{"name":"ElbowL","translation":[0,-0.29,0],"children":[8],"mesh":5},{"name":"HandL","translation":[0,-0.27,0.01],"mesh":6},{"name":"LegL","translation":[-0.19,-0.03,0],"children":[10],"mesh":7},{"name":"KneeL","translation":[0,-0.33,0],"mesh":8},{"name":"ArmR","translation":[0.4,0.4,0],"children":[12],"mesh":9},{"name":"ElbowR","translation":[0,-0.29,0],"children":[13],"mesh":10},{"name":"HandR","translation":[0,-0.27,0.01],"children":[16],"mesh":11},{"name":"LegR","translation":[0.19,-0.03,0],"children":[15],"mesh":12},{"name":"KneeR","translation":[0,-0.33,0],"mesh":13},{"name":"Dagger","translation":[0,-0.08,0.055],"rotation":[0.5226872289306592,0,0,0.8525245220595057],"mesh":14}],"meshes":[{"name":"Hips geometry","primitives":[{"attributes":{"POSITION":0,"NORMAL":1,"COLOR_0":2},"material":0},{"attributes":{"POSITION":3,"NORMAL":4,"COLOR_0":5},"material":1}]},{"name":"Torso geometry","primitives":[{"attributes":{"POSITION":6,"NORMAL":7,"COLOR_0":8},"material":0}]},{"name":"Neck geometry","primitives":[{"attributes":{"POSITION":9,"NORMAL":10,"COLOR_0":11},"material":0}]},{"name":"Head geometry","primitives":[{"attributes":{"POSITION":12,"NORMAL":13,"COLOR_0":14},"material":0}]},{"name":"ArmL geometry","primitives":[{"attributes":{"POSITION":15,"NORMAL":16,"COLOR_0":17},"material":0},{"attributes":{"POSITION":18,"NORMAL":19,"COLOR_0":20},"material":1}]},{"name":"ElbowL geometry","primitives":[{"attributes":{"POSITION":21,"NORMAL":22,"COLOR_0":23},"material":0},{"attributes":{"POSITION":24,"NORMAL":25,"COLOR_0":26},"material":1}]},{"name":"HandL geometry","primitives":[{"attributes":{"POSITION":27,"NORMAL":28,"COLOR_0":29},"material":0}]},{"name":"LegL geometry","primitives":[{"attributes":{"POSITION":30,"NORMAL":31,"COLOR_0":32},"material":0}]},{"name":"KneeL geometry","primitives":[{"attributes":{"POSITION":33,"NORMAL":34,"COLOR_0":35},"material":0}]},{"name":"ArmR geometry","primitives":[{"attributes":{"POSITION":36,"NORMAL":37,"COLOR_0":38},"material":0},{"attributes":{"POSITION":39,"NORMAL":40,"COLOR_0":41},"material":1}]},{"name":"ElbowR geometry","primitives":[{"attributes":{"POSITION":42,"NORMAL":43,"COLOR_0":44},"material":0},{"attributes":{"POSITION":45,"NORMAL":46,"COLOR_0":47},"material":1}]},{"name":"HandR geometry","primitives":[{"attributes":{"POSITION":48,"NORMAL":49,"COLOR_0":50},"material":0}]},{"name":"LegR geometry","primitives":[{"attributes":{"POSITION":51,"NORMAL":52,"COLOR_0":53},"material":0}]},{"name":"KneeR geometry","primitives":[{"attributes":{"POSITION":54,"NORMAL":55,"COLOR_0":56},"material":0}]},{"name":"Dagger geometry","primitives":[{"attributes":{"POSITION":57,"NORMAL":58,"COLOR_0":59},"material":0},{"attributes":{"POSITION":60,"NORMAL":61,"COLOR_0":62},"material":1}]}],"materials":[{"name":"Matte vertex palette","pbrMetallicRoughness":{"baseColorFactor":[1,1,1,1],"metallicFactor":0,"roughnessFactor":0.9}},{"name":"Forged steel","pbrMetallicRoughness":{"baseColorFactor":[1,1,1,1],"metallicFactor":0.65,"roughnessFactor":0.38}}],"accessors":[{"bufferView":0,"componentType":5126,"count":708,"type":"VEC3","min":[-0.43,-0.25,-0.2377641290737884],"max":[0.36,0.195,0.34]},{"bufferView":1,"componentType":5126,"count":708,"type":"VEC3","min":[-1.0,-1.0,-1.0],"max":[1.0,1.0,1.0]},{"bufferView":2,"componentType":5126,"count":708,"type":"VEC3","min":[0.0295568344378088,0.024157632448504756,0.013702083047289686],"max":[0.45078578283822346,0.30946892281750854,0.14126329114027164]},{"bufferView":3,"componentType":5126,"count":108,"type":"VEC3","min":[-0.3575,-0.07,0.2575],"max":[0.095,0.10500000000000001,0.35000000000000003]},{"bufferView":4,"componentType":5126,"count":108,"type":"VEC3","min":[-1.0,-1.0,-1.0],"max":[1.0,1.0,1.0]},{"bufferView":5,"componentType":5126,"count":108,"type":"VEC3","min":[0.39157247774972326,0.4178850708481375,0.43415363617474895],"max":[0.39157247774972326,0.4178850708481375,0.43415363617474895]},{"bufferView":6,"componentType":5126,"count":357,"type":"VEC3","min":[-0.38,-0.23,-0.2475],"max":[0.38,0.55,0.3]},{"bufferView":7,"componentType":5126,"count":357,"type":"VEC3","min":[-0.852824413445365,-0.9936052547897188,-1.0],"max":[0.8528244134453649,0.9163185051368353,1.0]},{"bufferView":8,"componentType":5126,"count":357,"type":"VEC3","min":[0.0295568344378088,0.028426039504420793,0.01599629336550963],"max":[0.24228112246555486,0.11697066775851084,0.04518620438567554]},{"bufferView":9,"componentType":5126,"count":240,"type":"VEC3","min":[-0.16167960777017612,-0.2,-0.15216904260722458],"max":[0.16167960777017612,0.2,0.15216904260722458]},{"bufferView":10,"componentType":5126,"count":240,"type":"VEC3","min":[-0.9152806444027731,-0.9733285267845753,-0.9317024681837722],"max":[0.915280644402773,0.9227574998689747,0.9317024681837722]},{"bufferView":11,"componentType":5126,"count":240,"type":"VEC3","min":[0.19120168274079138,0.3277780980565422,0.03433980680868217],"max":[0.19120168274079138,0.3277780980565422,0.03433980680868217]},{"bufferView":12,"componentType":5126,"count":2598,"type":"VEC3","min":[-0.93,-0.42000000000000004,-0.2967076940155368],"max":[0.93,0.46499999999999997,0.56]},{"bufferView":13,"componentType":5126,"count":2598,"type":"VEC3","min":[-1.0,-1.0,-1.0],"max":[1.0,1.0,1.0]},{"bufferView":14,"componentType":5126,"count":2598,"type":"VEC3","min":[0.009134058702220787,0.012983032342173012,0.006512090792594475],"max":[1.0,0.9046611743911496,0.6724431569576875]},{"bufferView":15,"componentType":5126,"count":816,"type":"VEC3","min":[-0.27,-0.39,-0.255],"max":[0.19999999999999998,0.165,0.255]},{"bufferView":16,"componentType":5126,"count":816,"type":"VEC3","min":[-0.9340524457212713,-0.9863939238321437,-0.9364016115156658],"max":[0.9340524457212714,0.9689334727365421,0.9364016115156658]},{"bufferView":17,"componentType":5126,"count":816,"type":"VEC3","min":[0.0295568344378088,0.028426039504420793,0.01599629336550963],"max":[0.24228112246555486,0.3277780980565422,0.04518620438567554]},{"bufferView":18,"componentType":5126,"count":12,"type":"VEC3","min":[-0.13,-0.06,0.241],"max":[-0.04000000000000001,0.03,0.276]},{"bufferView":19,"componentType":5126,"count":12,"type":"VEC3","min":[-0.5232045649263554,-0.5232045649263554,0.672691583476742],"max":[0.5232045649263554,0.5232045649263554,0.672691583476742]},{"bufferView":20,"componentType":5126,"count":12,"type":"VEC3","min":[0.39157247774972326,0.4178850708481375,0.43415363617474895],"max":[0.39157247774972326,0.4178850708481375,0.43415363617474895]},{"bufferView":21,"componentType":5126,"count":600,"type":"VEC3","min":[-0.15,-0.30000000000000004,-0.14],"max":[0.15,0.08,0.16]},{"bufferView":22,"componentType":5126,"count":600,"type":"VEC3","min":[-0.9238795325112868,-1.0,-0.9327242115913658],"max":[0.9238795325112868,1.0,0.9327242115913656]},{"bufferView":23,"componentType":5126,"count":600,"type":"VEC3","min":[0.14126329114027164,0.06301001765316767,0.027320891639074894],"max":[0.2704977910130658,0.41254261348390375,0.05126945837404324]},{"bufferView":24,"componentType":5126,"count":12,"type":"VEC3","min":[-0.045,-0.245,0.153],"max":[0.045,-0.15500000000000003,0.188]},{"bufferView":25,"componentType":5126,"count":12,"type":"VEC3","min":[-0.5232045649263551,-0.5232045649263553,0.6726915834767421],"max":[0.5232045649263551,0.5232045649263553,0.6726915834767421]},{"bufferView":26,"componentType":5126,"count":12,"type":"VEC3","min":[0.39157247774972326,0.4178850708481375,0.43415363617474895],"max":[0.39157247774972326,0.4178850708481375,0.43415363617474895]},{"bufferView":27,"componentType":5126,"count":708,"type":"VEC3","min":[-0.12839262969984575,-0.228,-0.09986093421099113],"max":[0.165,0.07,0.11263139720814414]},{"bufferView":28,"componentType":5126,"count":708,"type":"VEC3","min":[-0.9312049927488053,-0.9476490050479839,-1.0],"max":[1.0,0.9342369907071958,1.0]},{"bufferView":29,"componentType":5126,"count":708,"type":"VEC3","min":[0.19120168274079138,0.3277780980565422,0.03433980680868217],"max":[0.2704977910130658,0.41254261348390375,0.05126945837404324]},{"bufferView":30,"componentType":5126,"count":240,"type":"VEC3","min":[-0.13790319486279726,-0.4,-0.14265847744427304],"max":[0.13790319486279726,0.07999999999999999,0.14265847744427304]},{"bufferView":31,"componentType":5126,"count":240,"type":"VEC3","min":[-0.9283465233806655,-0.9486832980505138,-0.9191698685677013],"max":[0.9283465233806654,0.8704245919474273,0.9191698685677014]},{"bufferView":32,"componentType":5126,"count":240,"type":"VEC3","min":[0.017641954488384078,0.0202885630566524,0.013702083047289686],"max":[0.017641954488384078,0.0202885630566524,0.013702083047289686]},{"bufferView":33,"componentType":5126,"count":588,"type":"VEC3","min":[-0.19,-0.525,-0.17000000000000004],"max":[0.19,-0.03,0.39]},{"bufferView":34,"componentType":5126,"count":588,"type":"VEC3","min":[-1.0,-1.0,-1.0],"max":[1.0,1.0,1.0]},{"bufferView":35,"componentType":5126,"count":588,"type":"VEC3","min":[0.017641954488384078,0.017641954488384078,0.012286488356915872],"max":[0.24228112246555486,0.11697066775851084,0.04518620438567554]},{"bufferView":36,"componentType":5126,"count":816,"type":"VEC3","min":[-0.19999999999999998,-0.39,-0.255],"max":[0.27,0.165,0.255]},{"bufferView":37,"componentType":5126,"count":816,"type":"VEC3","min":[-0.9340524457212713,-0.9863939238321437,-0.9364016115156658],"max":[0.9340524457212714,0.9689334727365421,0.9364016115156658]},{"bufferView":38,"componentType":5126,"count":816,"type":"VEC3","min":[0.0295568344378088,0.028426039504420793,0.01599629336550963],"max":[0.24228112246555486,0.3277780980565422,0.04518620438567554]},{"bufferView":39,"componentType":5126,"count":12,"type":"VEC3","min":[0.04000000000000001,-0.06,0.241],"max":[0.13,0.03,0.276]},{"bufferView":40,"componentType":5126,"count":12,"type":"VEC3","min":[-0.5232045649263554,-0.5232045649263554,0.672691583476742],"max":[0.5232045649263554,0.5232045649263554,0.672691583476742]},{"bufferView":41,"componentType":5126,"count":12,"type":"VEC3","min":[0.39157247774972326,0.4178850708481375,0.43415363617474895],"max":[0.39157247774972326,0.4178850708481375,0.43415363617474895]},{"bufferView":42,"componentType":5126,"count":600,"type":"VEC3","min":[-0.15,-0.30000000000000004,-0.14],"max":[0.15,0.08,0.16]},{"bufferView":43,"componentType":5126,"count":600,"type":"VEC3","min":[-0.9238795325112868,-1.0,-0.9327242115913658],"max":[0.9238795325112868,1.0,0.9327242115913656]},{"bufferView":44,"componentType":5126,"count":600,"type":"VEC3","min":[0.14126329114027164,0.06301001765316767,0.027320891639074894],"max":[0.2704977910130658,0.41254261348390375,0.05126945837404324]},{"bufferView":45,"componentType":5126,"count":12,"type":"VEC3","min":[-0.045,-0.245,0.153],"max":[0.045,-0.15500000000000003,0.188]},{"bufferView":46,"componentType":5126,"count":12,"type":"VEC3","min":[-0.5232045649263551,-0.5232045649263553,0.6726915834767421],"max":[0.5232045649263551,0.5232045649263553,0.6726915834767421]},{"bufferView":47,"componentType":5126,"count":12,"type":"VEC3","min":[0.39157247774972326,0.4178850708481375,0.43415363617474895],"max":[0.39157247774972326,0.4178850708481375,0.43415363617474895]},{"bufferView":48,"componentType":5126,"count":708,"type":"VEC3","min":[-0.165,-0.228,-0.09986093421099113],"max":[0.12839262969984575,0.07,0.11263139720814414]},{"bufferView":49,"componentType":5126,"count":708,"type":"VEC3","min":[-0.9312049927488053,-0.9476490050479839,-1.0],"max":[1.0,0.9342369907071958,1.0]},{"bufferView":50,"componentType":5126,"count":708,"type":"VEC3","min":[0.19120168274079138,0.3277780980565422,0.03433980680868217],"max":[0.2704977910130658,0.41254261348390375,0.05126945837404324]},{"bufferView":51,"componentType":5126,"count":240,"type":"VEC3","min":[-0.13790319486279726,-0.4,-0.14265847744427304],"max":[0.13790319486279726,0.07999999999999999,0.14265847744427304]},{"bufferView":52,"componentType":5126,"count":240,"type":"VEC3","min":[-0.9283465233806655,-0.9486832980505138,-0.9191698685677013],"max":[0.9283465233806654,0.8704245919474273,0.9191698685677014]},{"bufferView":53,"componentType":5126,"count":240,"type":"VEC3","min":[0.017641954488384078,0.0202885630566524,0.013702083047289686],"max":[0.017641954488384078,0.0202885630566524,0.013702083047289686]},{"bufferView":54,"componentType":5126,"count":588,"type":"VEC3","min":[-0.19,-0.525,-0.17000000000000004],"max":[0.19,-0.03,0.39]},{"bufferView":55,"componentType":5126,"count":588,"type":"VEC3","min":[-1.0,-1.0,-1.0],"max":[1.0,1.0,1.0]},{"bufferView":56,"componentType":5126,"count":588,"type":"VEC3","min":[0.017641954488384078,0.017641954488384078,0.012286488356915872],"max":[0.24228112246555486,0.11697066775851084,0.04518620438567554]},{"bufferView":57,"componentType":5126,"count":180,"type":"VEC3","min":[-0.135,-0.055,-0.085],"max":[0.135,0.0475,0.1875]},{"bufferView":58,"componentType":5126,"count":180,"type":"VEC3","min":[-1.0,-1.0,-1.0],"max":[1.0,1.0,1.0]},{"bufferView":59,"componentType":5126,"count":180,"type":"VEC3","min":[0.03954623527673284,0.02315336617811041,0.014443843596092545],"max":[0.24228112246555486,0.11697066775851084,0.04518620438567554]},{"bufferView":60,"componentType":5126,"count":54,"type":"VEC3","min":[-0.075,-0.05,-0.1325],"max":[0.075,0.05,0.69]},{"bufferView":61,"componentType":5126,"count":54,"type":"VEC3","min":[-1.0,-1.0,-1.0],"max":[1.0,1.0,1.0]},{"bufferView":62,"componentType":5126,"count":54,"type":"VEC3","min":[0.39157247774972326,0.4178850708481375,0.43415363617474895],"max":[0.39157247774972326,0.4178850708481375,0.43415363617474895]},{"bufferView":63,"componentType":5126,"count":25,"type":"SCALAR","min":[0.0],"max":[2.4]},{"bufferView":64,"componentType":5126,"count":25,"type":"VEC4","min":[0.0,0.0,0.0,1.0],"max":[0.0,0.0,0.0,1.0]},{"bufferView":65,"componentType":5126,"count":25,"type":"VEC3","min":[0,-0.012,0],"max":[0,0.012,0]},{"bufferView":66,"componentType":5126,"count":25,"type":"VEC4","min":[0.0,0.0,0.0,1.0],"max":[0.0,0.0,0.0,1.0]},{"bufferView":67,"componentType":5126,"count":25,"type":"VEC4","min":[0.02999550020249566,0.0,0.0,0.9995500337489875],"max":[0.02999550020249566,0.0,0.0,0.9995500337489875]},{"bufferView":68,"componentType":5126,"count":25,"type":"VEC4","min":[0.0,0.0,0.0,1.0],"max":[0.0,0.0,0.0,1.0]},{"bufferView":69,"componentType":5126,"count":25,"type":"VEC4","min":[0.0,-0.01999866669333308,0.0,0.9998000066665778],"max":[0.0,0.01999866669333308,0.0,1.0]},{"bufferView":70,"componentType":5126,"count":25,"type":"VEC4","min":[0.0,0.0,0.044984814037660234,0.9989876708478425],"max":[0.0,0.0,0.044984814037660234,0.9989876708478425]},{"bufferView":71,"componentType":5126,"count":25,"type":"VEC4","min":[-0.0,0.0,-0.044984814037660234,0.9989876708478425],"max":[-0.0,0.0,-0.044984814037660234,0.9989876708478425]},{"bufferView":72,"componentType":5126,"count":25,"type":"VEC4","min":[-0.07492970727274234,0.0,0.0,0.9971888181122075],"max":[-0.07492970727274234,0.0,0.0,0.9971888181122075]},{"bufferView":73,"componentType":5126,"count":25,"type":"VEC4","min":[-0.07492970727274234,0.0,0.0,0.9971888181122075],"max":[-0.07492970727274234,0.0,0.0,0.9971888181122075]},{"bufferView":74,"componentType":5126,"count":25,"type":"VEC4","min":[0.0,0.0,0.0,1.0],"max":[0.0,0.0,0.0,1.0]},{"bufferView":75,"componentType":5126,"count":25,"type":"VEC4","min":[0.0,0.0,0.0,1.0],"max":[0.0,0.0,0.0,1.0]},{"bufferView":76,"componentType":5126,"count":25,"type":"VEC4","min":[0.0,0.0,0.0,1.0],"max":[0.0,0.0,0.0,1.0]},{"bufferView":77,"componentType":5126,"count":25,"type":"VEC4","min":[0.0,0.0,0.0,1.0],"max":[0.0,0.0,0.0,1.0]},{"bufferView":78,"componentType":5126,"count":25,"type":"SCALAR","min":[0.0],"max":[0.85]},{"bufferView":79,"componentType":5126,"count":25,"type":"VEC4","min":[0.0,0.0,0.0,1.0],"max":[0.0,0.0,0.0,1.0]},{"bufferView":80,"componentType":5126,"count":25,"type":"VEC3","min":[0,0.0,0],"max":[0,0.025,0]},{"bufferView":81,"componentType":5126,"count":25,"type":"VEC4","min":[0.0,0.0,0.0,1.0],"max":[0.0,0.0,0.0,1.0]},{"bufferView":82,"componentType":5126,"count":25,"type":"VEC4","min":[0.02998415886874892,-0.02748416147291478,-0.0008247722907218339,0.9991721027109057],"max":[0.02999550020249566,0.02748416147291478,0.0008247722907218339,0.9995500337489875]},{"bufferView":83,"componentType":5126,"count":25,"type":"VEC4","min":[0.0,0.0,0.0,1.0],"max":[0.0,0.0,0.0,1.0]},{"bufferView":84,"componentType":5126,"count":25,"type":"VEC4","min":[0.0,-0.01999866669333308,0.0,0.9998000066665778],"max":[0.0,0.01999866669333308,0.0,1.0]},{"bufferView":85,"componentType":5126,"count":25,"type":"VEC4","min":[-0.17761963751531862,-0.007998283258372891,0.04426805799808373,0.9830705116495582],"max":[0.17761963751531862,0.007998283258372891,0.044984814037660234,0.9989876708478425]},{"bufferView":86,"componentType":5126,"count":25,"type":"VEC4","min":[-0.17761963751531862,-0.007998283258372891,-0.044984814037660234,0.9830705116495582],"max":[0.17761963751531862,0.007998283258372891,-0.04426805799808373,0.9989876708478425]},{"bufferView":87,"componentType":5126,"count":25,"type":"VEC4","min":[-0.15684964310757413,0.0,0.0,0.9876224933936179],"max":[-0.07492970727274234,0.0,0.0,0.9971888181122075]},{"bufferView":88,"componentType":5126,"count":25,"type":"VEC4","min":[-0.15684964310757413,0.0,0.0,0.9876224933936179],"max":[-0.07492970727274234,0.0,0.0,0.9971888181122075]},{"bufferView":89,"componentType":5126,"count":25,"type":"VEC4","min":[-0.27154693695611287,0.0,0.0,0.962425197628238],"max":[0.27154693695611287,0.0,0.0,1.0]},{"bufferView":90,"componentType":5126,"count":25,"type":"VEC4","min":[-0.27154693695611287,0.0,0.0,0.962425197628238],"max":[0.27154693695611287,0.0,0.0,1.0]},{"bufferView":91,"componentType":5126,"count":25,"type":"VEC4","min":[0.0,0.0,0.0,0.946042343528387],"max":[0.32404302839486837,0.0,0.0,1.0]},{"bufferView":92,"componentType":5126,"count":25,"type":"VEC4","min":[0.0,0.0,0.0,0.946042343528387],"max":[0.32404302839486837,0.0,0.0,1.0]},{"bufferView":93,"componentType":5126,"count":25,"type":"SCALAR","min":[0.0],"max":[0.55]},{"bufferView":94,"componentType":5126,"count":25,"type":"VEC4","min":[0.0,0.0,0.0,1.0],"max":[0.0,0.0,0.0,1.0]},{"bufferView":95,"componentType":5126,"count":25,"type":"VEC3","min":[0,0.0,0],"max":[0,0.025,0]},{"bufferView":96,"componentType":5126,"count":25,"type":"VEC4","min":[0.0,0.0,0.0,1.0],"max":[0.0,0.0,0.0,1.0]},{"bufferView":97,"componentType":5126,"count":25,"type":"VEC4","min":[0.09478129301720803,-0.0398090179901403,-0.003793275016525225,0.9946946062210732],"max":[0.0948571686345573,0.0398090179901403,0.003793275016525225,0.9954908927552453]},{"bufferView":98,"componentType":5126,"count":25,"type":"VEC4","min":[0.0,0.0,0.0,1.0],"max":[0.0,0.0,0.0,1.0]},{"bufferView":99,"componentType":5126,"count":25,"type":"VEC4","min":[0.0,-0.01999866669333308,0.0,0.9998000066665778],"max":[0.0,0.01999866669333308,0.0,1.0]},{"bufferView":100,"componentType":5126,"count":25,"type":"VEC4","min":[-0.25682030175502196,-0.011564720819567659,0.04347287345423961,0.9654116733872947],"max":[0.25682030175502196,0.011564720819567659,0.044984814037660234,0.9989876708478425]},{"bufferView":101,"componentType":5126,"count":25,"type":"VEC4","min":[-0.25682030175502196,-0.011564720819567659,-0.044984814037660234,0.9654116733872947],"max":[0.25682030175502196,0.011564720819567659,-0.04347287345423961,0.9989876708478425]},{"bufferView":102,"componentType":5126,"count":25,"type":"VEC4","min":[-0.19376653496242194,0.0,0.0,0.9810476695495772],"max":[-0.07492970727274234,0.0,0.0,0.9971888181122075]},{"bufferView":103,"componentType":5126,"count":25,"type":"VEC4","min":[-0.19376653496242194,0.0,0.0,0.9810476695495772],"max":[-0.07492970727274234,0.0,0.0,0.9971888181122075]},{"bufferView":104,"componentType":5126,"count":25,"type":"VEC4","min":[-0.3894183423086505,0.0,0.0,0.9210609940028851],"max":[0.3894183423086505,0.0,0.0,1.0]},{"bufferView":105,"componentType":5126,"count":25,"type":"VEC4","min":[-0.3894183423086505,0.0,0.0,0.9210609940028851],"max":[0.3894183423086505,0.0,0.0,1.0]},{"bufferView":106,"componentType":5126,"count":25,"type":"VEC4","min":[0.0,0.0,0.0,0.8869949227792842],"max":[0.4617791755414829,0.0,0.0,1.0]},{"bufferView":107,"componentType":5126,"count":25,"type":"VEC4","min":[0.0,0.0,0.0,0.8869949227792842],"max":[0.4617791755414829,0.0,0.0,1.0]},{"bufferView":108,"componentType":5126,"count":25,"type":"SCALAR","min":[0.0],"max":[0.9]},{"bufferView":109,"componentType":5126,"count":25,"type":"VEC4","min":[0.0,0.0,0.0,1.0],"max":[0.0,0.0,0.0,1.0]},{"bufferView":110,"componentType":5126,"count":25,"type":"VEC3","min":[0,0,0],"max":[0,0,0]},{"bufferView":111,"componentType":5126,"count":25,"type":"VEC4","min":[0.0,0.0,0.0,1.0],"max":[0.0,0.0,0.0,1.0]},{"bufferView":112,"componentType":5126,"count":25,"type":"VEC4","min":[0.0,-0.17715446889191352,-0.01196455933355578,0.9754565869015873],"max":[0.08465901997420631,0.2057430202580619,0.016190245080602923,1.0]},{"bufferView":113,"componentType":5126,"count":25,"type":"VEC4","min":[0.0,0.0,0.0,1.0],"max":[0.0,0.0,0.0,1.0]},{"bufferView":114,"componentType":5126,"count":25,"type":"VEC4","min":[0.0,0.0,0.0,1.0],"max":[0.0,0.0,0.0,1.0]},{"bufferView":115,"componentType":5126,"count":25,"type":"VEC4","min":[-0.1490180347022439,0.0,0.0,0.9859914625905754],"max":[0.0,0.01119735552163208,0.07408832742950155,1.0]},{"bufferView":116,"componentType":5126,"count":25,"type":"VEC4","min":[-0.4351457015658239,-0.5582840816651721,-0.3933012328691702,0.6602669141362669],"max":[0.0,0.498731710848502,0.009338777380234198,1.0]},{"bufferView":117,"componentType":5126,"count":25,"type":"VEC4","min":[0.0,0.0,0.0,1.0],"max":[0.0,0.0,0.0,1.0]},{"bufferView":118,"componentType":5126,"count":25,"type":"VEC4","min":[-0.22310636213174545,0.0,0.0,0.9747941070689433],"max":[0.0,0.0,0.0,1.0]},{"bufferView":119,"componentType":5126,"count":25,"type":"VEC4","min":[0.0,0.0,0.0,1.0],"max":[0.0,0.0,0.0,1.0]},{"bufferView":120,"componentType":5126,"count":25,"type":"VEC4","min":[0.0,0.0,0.0,1.0],"max":[0.0,0.0,0.0,1.0]},{"bufferView":121,"componentType":5126,"count":25,"type":"VEC4","min":[0.0,0.0,0.0,1.0],"max":[0.0,0.0,0.0,1.0]},{"bufferView":122,"componentType":5126,"count":25,"type":"VEC4","min":[0.0,0.0,0.0,1.0],"max":[0.0,0.0,0.0,1.0]},{"bufferView":123,"componentType":5126,"count":25,"type":"SCALAR","min":[0.0],"max":[0.3]},{"bufferView":124,"componentType":5126,"count":25,"type":"VEC4","min":[0.0,0.0,0.0,1.0],"max":[0.0,0.0,0.0,1.0]},{"bufferView":125,"componentType":5126,"count":25,"type":"VEC3","min":[0,0,0],"max":[0,0,0]},{"bufferView":126,"componentType":5126,"count":25,"type":"VEC4","min":[0.0,0.0,0.0,1.0],"max":[0.0,0.0,0.0,1.0]},{"bufferView":127,"componentType":5126,"count":25,"type":"VEC4","min":[-0.1737404636321547,0.0,0.0,0.9826470364043632],"max":[0.0,0.011309061552333622,0.06396216279497989,1.0]},{"bufferView":128,"componentType":5126,"count":25,"type":"VEC4","min":[0.0,0.0,0.0,1.0],"max":[0.0,0.0,0.0,1.0]},{"bufferView":129,"componentType":5126,"count":25,"type":"VEC4","min":[-0.09983341664682815,0.0,0.0,0.9950041652780258],"max":[0.0,0.0,0.0,1.0]},{"bufferView":130,"componentType":5126,"count":25,"type":"VEC4","min":[0.0,0.0,0.0,0.9939560979566968],"max":[0.0,0.0,0.10977830083717481,1.0]},{"bufferView":131,"componentType":5126,"count":25,"type":"VEC4","min":[0.0,0.0,-0.10977830083717481,0.9939560979566968],"max":[0.0,0.0,0.0,1.0]},{"bufferView":132,"componentType":5126,"count":25,"type":"VEC4","min":[0.0,0.0,0.0,1.0],"max":[0.0,0.0,0.0,1.0]},{"bufferView":133,"componentType":5126,"count":25,"type":"VEC4","min":[0.0,0.0,0.0,1.0],"max":[0.0,0.0,0.0,1.0]},{"bufferView":134,"componentType":5126,"count":25,"type":"VEC4","min":[0.0,0.0,0.0,1.0],"max":[0.0,0.0,0.0,1.0]},{"bufferView":135,"componentType":5126,"count":25,"type":"VEC4","min":[0.0,0.0,0.0,1.0],"max":[0.0,0.0,0.0,1.0]},{"bufferView":136,"componentType":5126,"count":25,"type":"VEC4","min":[0.0,0.0,0.0,0.9902159962126371],"max":[0.1395431146442365,0.0,0.0,1.0]},{"bufferView":137,"componentType":5126,"count":25,"type":"VEC4","min":[0.0,0.0,0.0,0.9902159962126371],"max":[0.1395431146442365,0.0,0.0,1.0]},{"bufferView":138,"componentType":5126,"count":25,"type":"SCALAR","min":[0.0],"max":[0.55]},{"bufferView":139,"componentType":5126,"count":25,"type":"VEC4","min":[0.0,0.0,0.0,1.0],"max":[0.0,0.0,0.0,1.0]},{"bufferView":140,"componentType":5126,"count":25,"type":"VEC3","min":[0,0,0],"max":[0,0,0]},{"bufferView":141,"componentType":5126,"count":25,"type":"VEC4","min":[0.0,0.0,0.0,1.0],"max":[0.0,0.0,0.0,1.0]},{"bufferView":142,"componentType":5126,"count":25,"type":"VEC4","min":[-0.1737404636321547,0.0,0.0,0.9826470364043632],"max":[0.0,0.011309061552333622,0.06396216279497989,1.0]},{"bufferView":143,"componentType":5126,"count":25,"type":"VEC4","min":[0.0,0.0,0.0,1.0],"max":[0.0,0.0,0.0,1.0]},{"bufferView":144,"componentType":5126,"count":25,"type":"VEC4","min":[-0.09983341664682815,0.0,0.0,0.9950041652780258],"max":[0.0,0.0,0.0,1.0]},{"bufferView":145,"componentType":5126,"count":25,"type":"VEC4","min":[0.0,0.0,0.0,0.9939560979566968],"max":[0.0,0.0,0.10977830083717481,1.0]},{"bufferView":146,"componentType":5126,"count":25,"type":"VEC4","min":[0.0,0.0,-0.10977830083717481,0.9939560979566968],"max":[0.0,0.0,0.0,1.0]},{"bufferView":147,"componentType":5126,"count":25,"type":"VEC4","min":[0.0,0.0,0.0,1.0],"max":[0.0,0.0,0.0,1.0]},{"bufferView":148,"componentType":5126,"count":25,"type":"VEC4","min":[0.0,0.0,0.0,1.0],"max":[0.0,0.0,0.0,1.0]},{"bufferView":149,"componentType":5126,"count":25,"type":"VEC4","min":[0.0,0.0,0.0,1.0],"max":[0.0,0.0,0.0,1.0]},{"bufferView":150,"componentType":5126,"count":25,"type":"VEC4","min":[0.0,0.0,0.0,1.0],"max":[0.0,0.0,0.0,1.0]},{"bufferView":151,"componentType":5126,"count":25,"type":"VEC4","min":[0.0,0.0,0.0,0.9902159962126371],"max":[0.1395431146442365,0.0,0.0,1.0]},{"bufferView":152,"componentType":5126,"count":25,"type":"VEC4","min":[0.0,0.0,0.0,0.9902159962126371],"max":[0.1395431146442365,0.0,0.0,1.0]},{"bufferView":153,"componentType":5126,"count":25,"type":"SCALAR","min":[0.0],"max":[1.1]},{"bufferView":154,"componentType":5126,"count":25,"type":"VEC4","min":[-0.6721313408501649,0.0,0.0,0.7361067193924894],"max":[0.0,0.05388551210487578,0.05901448887673105,1.0]},{"bufferView":155,"componentType":5126,"count":25,"type":"VEC3","min":[0,-0.04,0],"max":[0,-0.0,0]},{"bufferView":156,"componentType":5126,"count":25,"type":"VEC4","min":[0.0,0.0,0.0,1.0],"max":[0.0,0.0,0.0,1.0]},{"bufferView":157,"componentType":5126,"count":25,"type":"VEC4","min":[0.0,0.0,0.0,1.0],"max":[0.0,0.0,0.0,1.0]},{"bufferView":158,"componentType":5126,"count":25,"type":"VEC4","min":[0.0,0.0,0.0,1.0],"max":[0.0,0.0,0.0,1.0]},{"bufferView":159,"componentType":5126,"count":25,"type":"VEC4","min":[0.0,0.0,0.0,0.9950041652780258],"max":[0.0,0.09983341664682815,0.0,1.0]},{"bufferView":160,"componentType":5126,"count":25,"type":"VEC4","min":[-0.1471556949711443,0.0,0.0,0.9736691213452591],"max":[0.0,0.02601839493044343,0.17215309088585662,1.0]},{"bufferView":161,"componentType":5126,"count":25,"type":"VEC4","min":[-0.1471556949711443,-0.02601839493044343,-0.17215309088585662,0.9736691213452591],"max":[-0.0,0.0,-0.0,1.0]},{"bufferView":162,"componentType":5126,"count":25,"type":"VEC4","min":[0.0,0.0,0.0,1.0],"max":[0.0,0.0,0.0,1.0]},{"bufferView":163,"componentType":5126,"count":25,"type":"VEC4","min":[0.0,0.0,0.0,1.0],"max":[0.0,0.0,0.0,1.0]},{"bufferView":164,"componentType":5126,"count":25,"type":"VEC4","min":[0.0,0.0,0.0,1.0],"max":[0.0,0.0,0.0,1.0]},{"bufferView":165,"componentType":5126,"count":25,"type":"VEC4","min":[0.0,0.0,0.0,1.0],"max":[0.0,0.0,0.0,1.0]},{"bufferView":166,"componentType":5126,"count":25,"type":"VEC4","min":[0.0,0.0,0.0,0.9780309147241483],"max":[0.20845989984609956,0.0,0.0,1.0]},{"bufferView":167,"componentType":5126,"count":25,"type":"VEC4","min":[0.0,0.0,0.0,0.9780309147241483],"max":[0.20845989984609956,0.0,0.0,1.0]}],"bufferViews":[{"buffer":0,"byteOffset":0,"byteLength":8496},{"buffer":0,"byteOffset":8496,"byteLength":8496},{"buffer":0,"byteOffset":16992,"byteLength":8496},{"buffer":0,"byteOffset":25488,"byteLength":1296},{"buffer":0,"byteOffset":26784,"byteLength":1296},{"buffer":0,"byteOffset":28080,"byteLength":1296},{"buffer":0,"byteOffset":29376,"byteLength":4284},{"buffer":0,"byteOffset":33660,"byteLength":4284},{"buffer":0,"byteOffset":37944,"byteLength":4284},{"buffer":0,"byteOffset":42228,"byteLength":2880},{"buffer":0,"byteOffset":45108,"byteLength":2880},{"buffer":0,"byteOffset":47988,"byteLength":2880},{"buffer":0,"byteOffset":50868,"byteLength":31176},{"buffer":0,"byteOffset":82044,"byteLength":31176},{"buffer":0,"byteOffset":113220,"byteLength":31176},{"buffer":0,"byteOffset":144396,"byteLength":9792},{"buffer":0,"byteOffset":154188,"byteLength":9792},{"buffer":0,"byteOffset":163980,"byteLength":9792},{"buffer":0,"byteOffset":173772,"byteLength":144},{"buffer":0,"byteOffset":173916,"byteLength":144},{"buffer":0,"byteOffset":174060,"byteLength":144},{"buffer":0,"byteOffset":174204,"byteLength":7200},{"buffer":0,"byteOffset":181404,"byteLength":7200},{"buffer":0,"byteOffset":188604,"byteLength":7200},{"buffer":0,"byteOffset":195804,"byteLength":144},{"buffer":0,"byteOffset":195948,"byteLength":144},{"buffer":0,"byteOffset":196092,"byteLength":144},{"buffer":0,"byteOffset":196236,"byteLength":8496},{"buffer":0,"byteOffset":204732,"byteLength":8496},{"buffer":0,"byteOffset":213228,"byteLength":8496},{"buffer":0,"byteOffset":221724,"byteLength":2880},{"buffer":0,"byteOffset":224604,"byteLength":2880},{"buffer":0,"byteOffset":227484,"byteLength":2880},{"buffer":0,"byteOffset":230364,"byteLength":7056},{"buffer":0,"byteOffset":237420,"byteLength":7056},{"buffer":0,"byteOffset":244476,"byteLength":7056},{"buffer":0,"byteOffset":251532,"byteLength":9792},{"buffer":0,"byteOffset":261324,"byteLength":9792},{"buffer":0,"byteOffset":271116,"byteLength":9792},{"buffer":0,"byteOffset":280908,"byteLength":144},{"buffer":0,"byteOffset":281052,"byteLength":144},{"buffer":0,"byteOffset":281196,"byteLength":144},{"buffer":0,"byteOffset":281340,"byteLength":7200},{"buffer":0,"byteOffset":288540,"byteLength":7200},{"buffer":0,"byteOffset":295740,"byteLength":7200},{"buffer":0,"byteOffset":302940,"byteLength":144},{"buffer":0,"byteOffset":303084,"byteLength":144},{"buffer":0,"byteOffset":303228,"byteLength":144},{"buffer":0,"byteOffset":303372,"byteLength":8496},{"buffer":0,"byteOffset":311868,"byteLength":8496},{"buffer":0,"byteOffset":320364,"byteLength":8496},{"buffer":0,"byteOffset":328860,"byteLength":2880},{"buffer":0,"byteOffset":331740,"byteLength":2880},{"buffer":0,"byteOffset":334620,"byteLength":2880},{"buffer":0,"byteOffset":337500,"byteLength":7056},{"buffer":0,"byteOffset":344556,"byteLength":7056},{"buffer":0,"byteOffset":351612,"byteLength":7056},{"buffer":0,"byteOffset":358668,"byteLength":2160},{"buffer":0,"byteOffset":360828,"byteLength":2160},{"buffer":0,"byteOffset":362988,"byteLength":2160},{"buffer":0,"byteOffset":365148,"byteLength":648},{"buffer":0,"byteOffset":365796,"byteLength":648},{"buffer":0,"byteOffset":366444,"byteLength":648},{"buffer":0,"byteOffset":367092,"byteLength":100},{"buffer":0,"byteOffset":367192,"byteLength":400},{"buffer":0,"byteOffset":367592,"byteLength":300},{"buffer":0,"byteOffset":367892,"byteLength":400},{"buffer":0,"byteOffset":368292,"byteLength":400},{"buffer":0,"byteOffset":368692,"byteLength":400},{"buffer":0,"byteOffset":369092,"byteLength":400},{"buffer":0,"byteOffset":369492,"byteLength":400},{"buffer":0,"byteOffset":369892,"byteLength":400},{"buffer":0,"byteOffset":370292,"byteLength":400},{"buffer":0,"byteOffset":370692,"byteLength":400},{"buffer":0,"byteOffset":371092,"byteLength":400},{"buffer":0,"byteOffset":371492,"byteLength":400},{"buffer":0,"byteOffset":371892,"byteLength":400},{"buffer":0,"byteOffset":372292,"byteLength":400},{"buffer":0,"byteOffset":372692,"byteLength":100},{"buffer":0,"byteOffset":372792,"byteLength":400},{"buffer":0,"byteOffset":373192,"byteLength":300},{"buffer":0,"byteOffset":373492,"byteLength":400},{"buffer":0,"byteOffset":373892,"byteLength":400},{"buffer":0,"byteOffset":374292,"byteLength":400},{"buffer":0,"byteOffset":374692,"byteLength":400},{"buffer":0,"byteOffset":375092,"byteLength":400},{"buffer":0,"byteOffset":375492,"byteLength":400},{"buffer":0,"byteOffset":375892,"byteLength":400},{"buffer":0,"byteOffset":376292,"byteLength":400},{"buffer":0,"byteOffset":376692,"byteLength":400},{"buffer":0,"byteOffset":377092,"byteLength":400},{"buffer":0,"byteOffset":377492,"byteLength":400},{"buffer":0,"byteOffset":377892,"byteLength":400},{"buffer":0,"byteOffset":378292,"byteLength":100},{"buffer":0,"byteOffset":378392,"byteLength":400},{"buffer":0,"byteOffset":378792,"byteLength":300},{"buffer":0,"byteOffset":379092,"byteLength":400},{"buffer":0,"byteOffset":379492,"byteLength":400},{"buffer":0,"byteOffset":379892,"byteLength":400},{"buffer":0,"byteOffset":380292,"byteLength":400},{"buffer":0,"byteOffset":380692,"byteLength":400},{"buffer":0,"byteOffset":381092,"byteLength":400},{"buffer":0,"byteOffset":381492,"byteLength":400},{"buffer":0,"byteOffset":381892,"byteLength":400},{"buffer":0,"byteOffset":382292,"byteLength":400},{"buffer":0,"byteOffset":382692,"byteLength":400},{"buffer":0,"byteOffset":383092,"byteLength":400},{"buffer":0,"byteOffset":383492,"byteLength":400},{"buffer":0,"byteOffset":383892,"byteLength":100},{"buffer":0,"byteOffset":383992,"byteLength":400},{"buffer":0,"byteOffset":384392,"byteLength":300},{"buffer":0,"byteOffset":384692,"byteLength":400},{"buffer":0,"byteOffset":385092,"byteLength":400},{"buffer":0,"byteOffset":385492,"byteLength":400},{"buffer":0,"byteOffset":385892,"byteLength":400},{"buffer":0,"byteOffset":386292,"byteLength":400},{"buffer":0,"byteOffset":386692,"byteLength":400},{"buffer":0,"byteOffset":387092,"byteLength":400},{"buffer":0,"byteOffset":387492,"byteLength":400},{"buffer":0,"byteOffset":387892,"byteLength":400},{"buffer":0,"byteOffset":388292,"byteLength":400},{"buffer":0,"byteOffset":388692,"byteLength":400},{"buffer":0,"byteOffset":389092,"byteLength":400},{"buffer":0,"byteOffset":389492,"byteLength":100},{"buffer":0,"byteOffset":389592,"byteLength":400},{"buffer":0,"byteOffset":389992,"byteLength":300},{"buffer":0,"byteOffset":390292,"byteLength":400},{"buffer":0,"byteOffset":390692,"byteLength":400},{"buffer":0,"byteOffset":391092,"byteLength":400},{"buffer":0,"byteOffset":391492,"byteLength":400},{"buffer":0,"byteOffset":391892,"byteLength":400},{"buffer":0,"byteOffset":392292,"byteLength":400},{"buffer":0,"byteOffset":392692,"byteLength":400},{"buffer":0,"byteOffset":393092,"byteLength":400},{"buffer":0,"byteOffset":393492,"byteLength":400},{"buffer":0,"byteOffset":393892,"byteLength":400},{"buffer":0,"byteOffset":394292,"byteLength":400},{"buffer":0,"byteOffset":394692,"byteLength":400},{"buffer":0,"byteOffset":395092,"byteLength":100},{"buffer":0,"byteOffset":395192,"byteLength":400},{"buffer":0,"byteOffset":395592,"byteLength":300},{"buffer":0,"byteOffset":395892,"byteLength":400},{"buffer":0,"byteOffset":396292,"byteLength":400},{"buffer":0,"byteOffset":396692,"byteLength":400},{"buffer":0,"byteOffset":397092,"byteLength":400},{"buffer":0,"byteOffset":397492,"byteLength":400},{"buffer":0,"byteOffset":397892,"byteLength":400},{"buffer":0,"byteOffset":398292,"byteLength":400},{"buffer":0,"byteOffset":398692,"byteLength":400},{"buffer":0,"byteOffset":399092,"byteLength":400},{"buffer":0,"byteOffset":399492,"byteLength":400},{"buffer":0,"byteOffset":399892,"byteLength":400},{"buffer":0,"byteOffset":400292,"byteLength":400},{"buffer":0,"byteOffset":400692,"byteLength":100},{"buffer":0,"byteOffset":400792,"byteLength":400},{"buffer":0,"byteOffset":401192,"byteLength":300},{"buffer":0,"byteOffset":401492,"byteLength":400},{"buffer":0,"byteOffset":401892,"byteLength":400},{"buffer":0,"byteOffset":402292,"byteLength":400},{"buffer":0,"byteOffset":402692,"byteLength":400},{"buffer":0,"byteOffset":403092,"byteLength":400},{"buffer":0,"byteOffset":403492,"byteLength":400},{"buffer":0,"byteOffset":403892,"byteLength":400},{"buffer":0,"byteOffset":404292,"byteLength":400},{"buffer":0,"byteOffset":404692,"byteLength":400},{"buffer":0,"byteOffset":405092,"byteLength":400},{"buffer":0,"byteOffset":405492,"byteLength":400},{"buffer":0,"byteOffset":405892,"byteLength":400}],"animations":[{"name":"Idle","samplers":[{"input":63,"output":64,"interpolation":"LINEAR"},{"input":63,"output":65,"interpolation":"LINEAR"},{"input":63,"output":66,"interpolation":"LINEAR"},{"input":63,"output":67,"interpolation":"LINEAR"},{"input":63,"output":68,"interpolation":"LINEAR"},{"input":63,"output":69,"interpolation":"LINEAR"},{"input":63,"output":70,"interpolation":"LINEAR"},{"input":63,"output":71,"interpolation":"LINEAR"},{"input":63,"output":72,"interpolation":"LINEAR"},{"input":63,"output":73,"interpolation":"LINEAR"},{"input":63,"output":74,"interpolation":"LINEAR"},{"input":63,"output":75,"interpolation":"LINEAR"},{"input":63,"output":76,"interpolation":"LINEAR"},{"input":63,"output":77,"interpolation":"LINEAR"}],"channels":[{"sampler":0,"target":{"node":1,"path":"rotation"}},{"sampler":1,"target":{"node":1,"path":"translation"}},{"sampler":2,"target":{"node":2,"path":"rotation"}},{"sampler":3,"target":{"node":3,"path":"rotation"}},{"sampler":4,"target":{"node":4,"path":"rotation"}},{"sampler":5,"target":{"node":5,"path":"rotation"}},{"sampler":6,"target":{"node":6,"path":"rotation"}},{"sampler":7,"target":{"node":11,"path":"rotation"}},{"sampler":8,"target":{"node":7,"path":"rotation"}},{"sampler":9,"target":{"node":12,"path":"rotation"}},{"sampler":10,"target":{"node":9,"path":"rotation"}},{"sampler":11,"target":{"node":14,"path":"rotation"}},{"sampler":12,"target":{"node":10,"path":"rotation"}},{"sampler":13,"target":{"node":15,"path":"rotation"}}]},{"name":"Walk","samplers":[{"input":78,"output":79,"interpolation":"LINEAR"},{"input":78,"output":80,"interpolation":"LINEAR"},{"input":78,"output":81,"interpolation":"LINEAR"},{"input":78,"output":82,"interpolation":"LINEAR"},{"input":78,"output":83,"interpolation":"LINEAR"},{"input":78,"output":84,"interpolation":"LINEAR"},{"input":78,"output":85,"interpolation":"LINEAR"},{"input":78,"output":86,"interpolation":"LINEAR"},{"input":78,"output":87,"interpolation":"LINEAR"},{"input":78,"output":88,"interpolation":"LINEAR"},{"input":78,"output":89,"interpolation":"LINEAR"},{"input":78,"output":90,"interpolation":"LINEAR"},{"input":78,"output":91,"interpolation":"LINEAR"},{"input":78,"output":92,"interpolation":"LINEAR"}],"channels":[{"sampler":0,"target":{"node":1,"path":"rotation"}},{"sampler":1,"target":{"node":1,"path":"translation"}},{"sampler":2,"target":{"node":2,"path":"rotation"}},{"sampler":3,"target":{"node":3,"path":"rotation"}},{"sampler":4,"target":{"node":4,"path":"rotation"}},{"sampler":5,"target":{"node":5,"path":"rotation"}},{"sampler":6,"target":{"node":6,"path":"rotation"}},{"sampler":7,"target":{"node":11,"path":"rotation"}},{"sampler":8,"target":{"node":7,"path":"rotation"}},{"sampler":9,"target":{"node":12,"path":"rotation"}},{"sampler":10,"target":{"node":9,"path":"rotation"}},{"sampler":11,"target":{"node":14,"path":"rotation"}},{"sampler":12,"target":{"node":10,"path":"rotation"}},{"sampler":13,"target":{"node":15,"path":"rotation"}}]},{"name":"Run","samplers":[{"input":93,"output":94,"interpolation":"LINEAR"},{"input":93,"output":95,"interpolation":"LINEAR"},{"input":93,"output":96,"interpolation":"LINEAR"},{"input":93,"output":97,"interpolation":"LINEAR"},{"input":93,"output":98,"interpolation":"LINEAR"},{"input":93,"output":99,"interpolation":"LINEAR"},{"input":93,"output":100,"interpolation":"LINEAR"},{"input":93,"output":101,"interpolation":"LINEAR"},{"input":93,"output":102,"interpolation":"LINEAR"},{"input":93,"output":103,"interpolation":"LINEAR"},{"input":93,"output":104,"interpolation":"LINEAR"},{"input":93,"output":105,"interpolation":"LINEAR"},{"input":93,"output":106,"interpolation":"LINEAR"},{"input":93,"output":107,"interpolation":"LINEAR"}],"channels":[{"sampler":0,"target":{"node":1,"path":"rotation"}},{"sampler":1,"target":{"node":1,"path":"translation"}},{"sampler":2,"target":{"node":2,"path":"rotation"}},{"sampler":3,"target":{"node":3,"path":"rotation"}},{"sampler":4,"target":{"node":4,"path":"rotation"}},{"sampler":5,"target":{"node":5,"path":"rotation"}},{"sampler":6,"target":{"node":6,"path":"rotation"}},{"sampler":7,"target":{"node":11,"path":"rotation"}},{"sampler":8,"target":{"node":7,"path":"rotation"}},{"sampler":9,"target":{"node":12,"path":"rotation"}},{"sampler":10,"target":{"node":9,"path":"rotation"}},{"sampler":11,"target":{"node":14,"path":"rotation"}},{"sampler":12,"target":{"node":10,"path":"rotation"}},{"sampler":13,"target":{"node":15,"path":"rotation"}}]},{"name":"Attack","samplers":[{"input":108,"output":109,"interpolation":"LINEAR"},{"input":108,"output":110,"interpolation":"LINEAR"},{"input":108,"output":111,"interpolation":"LINEAR"},{"input":108,"output":112,"interpolation":"LINEAR"},{"input":108,"output":113,"interpolation":"LINEAR"},{"input":108,"output":114,"interpolation":"LINEAR"},{"input":108,"output":115,"interpolation":"LINEAR"},{"input":108,"output":116,"interpolation":"LINEAR"},{"input":108,"output":117,"interpolation":"LINEAR"},{"input":108,"output":118,"interpolation":"LINEAR"},{"input":108,"output":119,"interpolation":"LINEAR"},{"input":108,"output":120,"interpolation":"LINEAR"},{"input":108,"output":121,"interpolation":"LINEAR"},{"input":108,"output":122,"interpolation":"LINEAR"}],"channels":[{"sampler":0,"target":{"node":1,"path":"rotation"}},{"sampler":1,"target":{"node":1,"path":"translation"}},{"sampler":2,"target":{"node":2,"path":"rotation"}},{"sampler":3,"target":{"node":3,"path":"rotation"}},{"sampler":4,"target":{"node":4,"path":"rotation"}},{"sampler":5,"target":{"node":5,"path":"rotation"}},{"sampler":6,"target":{"node":6,"path":"rotation"}},{"sampler":7,"target":{"node":11,"path":"rotation"}},{"sampler":8,"target":{"node":7,"path":"rotation"}},{"sampler":9,"target":{"node":12,"path":"rotation"}},{"sampler":10,"target":{"node":9,"path":"rotation"}},{"sampler":11,"target":{"node":14,"path":"rotation"}},{"sampler":12,"target":{"node":10,"path":"rotation"}},{"sampler":13,"target":{"node":15,"path":"rotation"}}]},{"name":"Damage","samplers":[{"input":123,"output":124,"interpolation":"LINEAR"},{"input":123,"output":125,"interpolation":"LINEAR"},{"input":123,"output":126,"interpolation":"LINEAR"},{"input":123,"output":127,"interpolation":"LINEAR"},{"input":123,"output":128,"interpolation":"LINEAR"},{"input":123,"output":129,"interpolation":"LINEAR"},{"input":123,"output":130,"interpolation":"LINEAR"},{"input":123,"output":131,"interpolation":"LINEAR"},{"input":123,"output":132,"interpolation":"LINEAR"},{"input":123,"output":133,"interpolation":"LINEAR"},{"input":123,"output":134,"interpolation":"LINEAR"},{"input":123,"output":135,"interpolation":"LINEAR"},{"input":123,"output":136,"interpolation":"LINEAR"},{"input":123,"output":137,"interpolation":"LINEAR"}],"channels":[{"sampler":0,"target":{"node":1,"path":"rotation"}},{"sampler":1,"target":{"node":1,"path":"translation"}},{"sampler":2,"target":{"node":2,"path":"rotation"}},{"sampler":3,"target":{"node":3,"path":"rotation"}},{"sampler":4,"target":{"node":4,"path":"rotation"}},{"sampler":5,"target":{"node":5,"path":"rotation"}},{"sampler":6,"target":{"node":6,"path":"rotation"}},{"sampler":7,"target":{"node":11,"path":"rotation"}},{"sampler":8,"target":{"node":7,"path":"rotation"}},{"sampler":9,"target":{"node":12,"path":"rotation"}},{"sampler":10,"target":{"node":9,"path":"rotation"}},{"sampler":11,"target":{"node":14,"path":"rotation"}},{"sampler":12,"target":{"node":10,"path":"rotation"}},{"sampler":13,"target":{"node":15,"path":"rotation"}}]},{"name":"Stagger","samplers":[{"input":138,"output":139,"interpolation":"LINEAR"},{"input":138,"output":140,"interpolation":"LINEAR"},{"input":138,"output":141,"interpolation":"LINEAR"},{"input":138,"output":142,"interpolation":"LINEAR"},{"input":138,"output":143,"interpolation":"LINEAR"},{"input":138,"output":144,"interpolation":"LINEAR"},{"input":138,"output":145,"interpolation":"LINEAR"},{"input":138,"output":146,"interpolation":"LINEAR"},{"input":138,"output":147,"interpolation":"LINEAR"},{"input":138,"output":148,"interpolation":"LINEAR"},{"input":138,"output":149,"interpolation":"LINEAR"},{"input":138,"output":150,"interpolation":"LINEAR"},{"input":138,"output":151,"interpolation":"LINEAR"},{"input":138,"output":152,"interpolation":"LINEAR"}],"channels":[{"sampler":0,"target":{"node":1,"path":"rotation"}},{"sampler":1,"target":{"node":1,"path":"translation"}},{"sampler":2,"target":{"node":2,"path":"rotation"}},{"sampler":3,"target":{"node":3,"path":"rotation"}},{"sampler":4,"target":{"node":4,"path":"rotation"}},{"sampler":5,"target":{"node":5,"path":"rotation"}},{"sampler":6,"target":{"node":6,"path":"rotation"}},{"sampler":7,"target":{"node":11,"path":"rotation"}},{"sampler":8,"target":{"node":7,"path":"rotation"}},{"sampler":9,"target":{"node":12,"path":"rotation"}},{"sampler":10,"target":{"node":9,"path":"rotation"}},{"sampler":11,"target":{"node":14,"path":"rotation"}},{"sampler":12,"target":{"node":10,"path":"rotation"}},{"sampler":13,"target":{"node":15,"path":"rotation"}}]},{"name":"Death","samplers":[{"input":153,"output":154,"interpolation":"LINEAR"},{"input":153,"output":155,"interpolation":"LINEAR"},{"input":153,"output":156,"interpolation":"LINEAR"},{"input":153,"output":157,"interpolation":"LINEAR"},{"input":153,"output":158,"interpolation":"LINEAR"},{"input":153,"output":159,"interpolation":"LINEAR"},{"input":153,"output":160,"interpolation":"LINEAR"},{"input":153,"output":161,"interpolation":"LINEAR"},{"input":153,"output":162,"interpolation":"LINEAR"},{"input":153,"output":163,"interpolation":"LINEAR"},{"input":153,"output":164,"interpolation":"LINEAR"},{"input":153,"output":165,"interpolation":"LINEAR"},{"input":153,"output":166,"interpolation":"LINEAR"},{"input":153,"output":167,"interpolation":"LINEAR"}],"channels":[{"sampler":0,"target":{"node":1,"path":"rotation"}},{"sampler":1,"target":{"node":1,"path":"translation"}},{"sampler":2,"target":{"node":2,"path":"rotation"}},{"sampler":3,"target":{"node":3,"path":"rotation"}},{"sampler":4,"target":{"node":4,"path":"rotation"}},{"sampler":5,"target":{"node":5,"path":"rotation"}},{"sampler":6,"target":{"node":6,"path":"rotation"}},{"sampler":7,"target":{"node":11,"path":"rotation"}},{"sampler":8,"target":{"node":7,"path":"rotation"}},{"sampler":9,"target":{"node":12,"path":"rotation"}},{"sampler":10,"target":{"node":9,"path":"rotation"}},{"sampler":11,"target":{"node":14,"path":"rotation"}},{"sampler":12,"target":{"node":10,"path":"rotation"}},{"sampler":13,"target":{"node":15,"path":"rotation"}}]}],"buffers":[{"byteLength":406292,"uri":"data:application/octet-stream;base64,"}]}
